<svg width="26" height="19" viewBox="0 0 26 19" fill="none" xmlns="http://www.w3.org/2000/svg">
<path d="M21.3837 1.49295C19.7734 0.80295 18.0473 0.29295 16.2423 0.00295017C16.2263 1.80819e-05 16.2096 0.00190762 16.1947 0.0083575C16.1798 0.0148074 16.1674 0.0254985 16.1592 0.0389502C15.9382 0.40795 15.6919 0.88895 15.5193 1.26895C13.6049 0.997187 11.6587 0.997187 9.74435 1.26895C9.5521 0.847811 9.3353 0.437174 9.09497 0.0389502C9.08682 0.0253329 9.0745 0.0143999 9.05964 0.0076103C9.04479 0.000820665 9.02811 -0.00150281 9.01182 0.000950073C7.20788 0.29095 5.48181 0.80095 3.87047 1.49195C3.85661 1.49747 3.84485 1.5069 3.83679 1.51895C0.561477 6.09395 -0.336287 10.556 0.104701 14.962C0.105928 14.9727 0.109454 14.9832 0.115063 14.9926C0.120672 15.0021 0.128247 15.0104 0.137328 15.017C2.04904 16.3394 4.1813 17.3468 6.44483 17.997C6.46061 18.0016 6.47749 18.0016 6.49326 17.9969C6.50903 17.9923 6.52296 17.9832 6.53324 17.9709C7.02032 17.352 7.45194 16.6954 7.82358 16.0079C7.82873 15.9986 7.83171 15.9882 7.83229 15.9776C7.83288 15.967 7.83107 15.9565 7.82697 15.9466C7.82288 15.9367 7.81661 15.9278 7.80858 15.9205C7.80055 15.9131 7.79095 15.9075 7.78043 15.9039C7.10053 15.6607 6.44176 15.3671 5.81019 15.0259C5.79884 15.0198 5.78927 15.0111 5.78235 15.0005C5.77544 14.99 5.77138 14.978 5.77054 14.9656C5.76971 14.9532 5.77212 14.9408 5.77757 14.9295C5.78302 14.9183 5.79134 14.9084 5.80177 14.9009C5.93438 14.8079 6.06699 14.711 6.19329 14.614C6.20466 14.6052 6.21835 14.5997 6.23284 14.5979C6.24734 14.5961 6.26206 14.5982 6.27538 14.604C10.4085 16.368 14.8847 16.368 18.9693 14.604C18.9827 14.5979 18.9976 14.5955 19.0123 14.5971C19.027 14.5987 19.0409 14.6042 19.0525 14.6129C19.1788 14.7109 19.3103 14.8079 19.444 14.9009C19.4545 14.9083 19.463 14.918 19.4686 14.9292C19.4742 14.9403 19.4768 14.9527 19.4762 14.9651C19.4756 14.9774 19.4717 14.9895 19.465 15.0001C19.4583 15.0107 19.4489 15.0196 19.4377 15.0259C18.8083 15.3699 18.1536 15.661 17.4664 15.903C17.4558 15.9066 17.4462 15.9123 17.4382 15.9198C17.4301 15.9272 17.4239 15.9362 17.4198 15.9462C17.4157 15.9561 17.4139 15.9668 17.4145 15.9774C17.4151 15.9881 17.4181 15.9985 17.4232 16.0079C17.8021 16.695 18.2357 17.3489 18.7125 17.9699C18.7224 17.9827 18.7362 17.9922 18.7521 17.9972C18.7679 18.0022 18.7849 18.0025 18.8009 17.9979C21.0683 17.3496 23.2041 16.3417 25.1179 15.017C25.1272 15.0107 25.1351 15.0027 25.1409 14.9934C25.1467 14.9841 25.1503 14.9737 25.1516 14.9629C25.6778 9.86895 24.2696 5.44295 21.4163 1.52095C21.4093 1.5082 21.3978 1.49827 21.3837 1.49295ZM8.44138 12.2789C7.19735 12.2789 6.17119 11.2099 6.17119 9.89895C6.17119 8.58695 7.17736 7.51895 8.44138 7.51895C9.71488 7.51895 10.7316 8.59595 10.7116 9.89895C10.7116 11.2109 9.70541 12.2789 8.44138 12.2789ZM16.8349 12.2789C15.5898 12.2789 14.5647 11.2099 14.5647 9.89895C14.5647 8.58695 15.5698 7.51895 16.8349 7.51895C18.1084 7.51895 19.1251 8.59595 19.1051 9.89895C19.1051 11.2109 18.1094 12.2789 16.8349 12.2789Z" fill="white"/>
</svg>
